<?xml version="1.0" encoding="UTF-8"?>
<svg id="Calque_1" data-name="Calque 1" xmlns="http://www.w3.org/2000/svg" viewBox="0 0 500 500">
  <defs>
    <style>
      .cls-1 {
        fill: #007;
      }

      .cls-2 {
        fill: #06ffa2;
      }
    </style>
  </defs>
  <path class="cls-1" d="m460.28,239.41c-.21-1.47-.6-2.73-1.15-3.78-.56-1.05-1.26-1.85-2.1-2.41-.84-.55-1.82-.84-2.94-.84-5.46-.7-10.11-1.93-13.96-3.67-3.85-1.75-6.99-4.23-9.44-7.45-2.45-3.22-4.27-7.25-5.46-12.07-1.19-4.83-1.78-11.99-1.78-21.51v-43.22c0-14.82-.66-26.71-2-35.67-1.33-8.95-3.74-16.4-7.24-22.35-3.49-5.94-8.26-10.42-14.27-13.43-6.02-3-13.64-4.51-22.87-4.51-2.66,0-4.9.04-6.72.11-1.48.06-239.2.06-240.63,0-1.75-.07-3.96-.11-6.61-.11-9.24,0-16.82,1.51-22.77,4.51-5.95,3.01-10.7,7.53-14.27,13.54-3.57,6.02-6.02,13.5-7.35,22.45-1.34,8.96-1.99,20.78-1.99,35.46v33.79c0,17.34-2.55,30.46-7.66,39.34-5.11,8.88-12.83,13.88-23.19,15-1.25.28-2.31.63-3.15,1.05-.84.42-1.5,1.15-1.99,2.2-.49,1.05-.84,2.35-1.05,3.88-.21,1.55-.31,3.43-.31,5.66,0,2.1.14,3.96.42,5.56.28,1.61.66,2.9,1.15,3.88.49.98,1.15,1.71,1.99,2.2.85.49,1.89.88,3.15,1.15,5.46.56,10.11,2.2,13.96,4.93,3.85,2.73,6.99,6.3,9.44,10.7,2.45,4.41,4.27,9.55,5.46,15.43,1.19,5.87,1.79,13.57,1.79,23.08v43.22c0,14.83.63,26.71,1.88,35.67,1.26,8.96,3.64,16.4,7.14,22.35,3.49,5.95,8.26,10.42,14.27,13.43,6.02,3.01,13.71,4.51,23.09,4.51,2.65,0,4.93-.04,6.82-.11,1.59-.05,238.98-.22,240.42-.1,1.82.14,4.06.21,6.72.21,9.09,0,16.64-1.5,22.66-4.51,6.01-3.01,10.77-7.52,14.27-13.54,3.5-6.01,5.95-13.49,7.35-22.45,1.4-8.96,2.1-20.78,2.1-35.46v-33.78c0-10.07.48-18.58,1.46-25.49.98-6.93,2.69-13.18,5.15-18.78,2.45-5.59,5.63-10.17,9.55-13.74,3.91-3.57,8.81-5.63,14.68-6.19,1.12-.14,2.1-.45,2.94-.95.84-.49,1.5-1.22,1.99-2.2.49-.98.85-2.24,1.05-3.78.21-1.54.31-3.42.31-5.66s-.1-4.09-.31-5.56Zm-69.41-154.37c.72,0,1.36,0,1.94,0,.39,0,.8,0,1.25,0h0s-3.18,0-3.18,0h0Zm19.89,170c-4.83,5.04-8.65,11.06-11.44,18.05-2.8,6.99-4.79,14.55-5.98,22.66-1.19,8.11-1.78,17.35-1.78,27.7v30.63c0,12.46-.35,21.68-1.05,27.7-.71,6.01-1.83,10.7-3.36,14.06-1.54,3.35-3.49,5.66-5.87,6.92-2.38,1.26-5.25,1.89-8.6,1.89l-137.14.19-108.84-.19c-3.22,0-5.98-.63-8.29-1.89-2.3-1.25-4.19-3.6-5.66-7.03-1.46-3.43-2.55-8.15-3.25-14.16-.71-6.02-1.05-15.18-1.05-27.5v-39.86c0-10.36-.55-19.09-1.67-26.23-1.13-7.13-3.12-13.6-5.98-19.41-2.87-5.8-6.68-10.77-11.44-14.89-4.76-4.13-10.77-6.89-18.04-8.29,7.26-1.54,13.28-4.36,18.04-8.49,4.76-4.13,8.56-9.06,11.44-14.79,2.86-5.74,4.86-12.2,5.98-19.41,1.12-7.2,1.67-15.91,1.67-26.12v-30.63c0-12.45.38-21.68,1.15-27.7.77-6.02,1.89-10.74,3.36-14.17,1.47-3.43,3.39-5.74,5.77-6.93,2.37-1.18,5.25-1.78,8.6-1.78l108.99-.19,136.99.19c3.22,0,5.98.63,8.29,1.89,2.31,1.25,4.19,3.6,5.66,7.03,1.46,3.43,2.55,8.11,3.26,14.06.69,5.95,1.05,15.15,1.05,27.59v39.86c0,10.36.59,18.61,1.78,24.77,1.19,6.16,3.18,11.57,5.98,16.26,2.79,4.69,6.61,8.57,11.44,11.65,4.82,3.08,10.8,5.32,17.94,6.71-7.14,1.55-13.12,4.83-17.94,9.86Z"/>
  <g>
    <polygon class="cls-2" points="120.31 249.86 120.49 250.04 120.49 249.68 120.31 249.86"/>
    <polygon class="cls-2" points="379.69 249.86 379.62 249.79 379.62 249.93 379.69 249.86"/>
    <path class="cls-2" d="m247.57,316.3h-37.3l35.5-132.6h37.3l-35.5,132.6Z"/>
    <polygon class="cls-2" points="209.71 293.01 164.73 249.86 209.71 206.71 186.67 183.77 120.49 249.68 120.49 250.04 186.67 315.95 209.71 293.01"/>
    <polygon class="cls-2" points="209.71 293.01 164.73 249.86 209.71 206.71 186.67 183.77 120.49 249.68 120.49 250.04 186.67 315.95 209.71 293.01"/>
    <polygon class="cls-2" points="290.29 206.71 335.26 249.86 290.29 293.01 313.33 315.95 379.62 249.93 379.62 249.79 313.33 183.77 290.29 206.71"/>
    <polygon class="cls-2" points="290.29 206.71 335.26 249.86 290.29 293.01 313.33 315.95 379.62 249.93 379.62 249.79 313.33 183.77 290.29 206.71"/>
    <polygon class="cls-2" points="210.27 316.3 247.57 316.3 283.07 183.7 245.78 183.7 210.27 316.3"/>
    <polygon class="cls-2" points="210.27 316.3 247.57 316.3 283.07 183.7 245.78 183.7 210.27 316.3"/>
  </g>
</svg>