<?xml version="1.0" encoding="UTF-8"?>
<svg id="Calque_1" data-name="Calque 1" xmlns="http://www.w3.org/2000/svg" viewBox="0 0 1080 1080">
  <defs>
    <style>
      .cls-1 {
        fill: #007;
      }

      .cls-2 {
        fill: #cee5f2;
      }

      .cls-3 {
        fill: #06ffa2;
      }
    </style>
  </defs>
  <g>
    <path class="cls-2" d="m784.95,409.33c-.26-1.73-.71-3.18-1.36-4.42-.65-1.22-1.47-2.15-2.44-2.81-.99-.65-2.13-.96-3.43-.96-6.35-.82-11.77-2.24-16.25-4.28-4.48-2.04-8.14-4.93-11-8.68-2.84-3.74-4.96-8.45-6.35-14.04-1.39-5.64-2.07-13.98-2.07-25.07v-50.36c0-17.24-.77-31.11-2.33-41.54-1.56-10.41-4.37-19.08-8.42-26.03-4.08-6.89-9.64-12.14-16.62-15.62-7.03-3.49-15.91-5.25-26.66-5.25-3.09,0-5.7.03-7.83.11-1.73.09-278.61.09-280.25,0-2.04-.09-4.62-.11-7.71-.11-10.75,0-19.59,1.76-26.51,5.25-6.92,3.49-12.48,8.76-16.62,15.77-4.17,7-7,15.71-8.56,26.15-1.56,10.44-2.33,24.19-2.33,41.29v39.36c0,20.19-2.98,35.47-8.9,45.83-5.95,10.35-14.94,16.19-27.02,17.47-1.45.34-2.69.74-3.66,1.22-.96.51-1.76,1.36-2.33,2.58s-.96,2.72-1.22,4.51c-.26,1.81-.37,4-.37,6.61,0,2.44.17,4.59.48,6.47.34,1.9.79,3.4,1.36,4.54.57,1.13,1.33,1.99,2.33,2.55.96.57,2.18,1.05,3.66,1.36,6.35.65,11.77,2.55,16.25,5.73,4.48,3.18,8.14,7.34,11,12.48,2.84,5.13,4.96,11.12,6.35,17.98,1.39,6.83,2.07,15.79,2.07,26.85v50.36c0,17.27.74,31.11,2.21,41.54,1.47,10.44,4.23,19.11,8.31,26.03,4.06,6.92,9.61,12.14,16.62,15.65,7,3.49,15.97,5.25,26.88,5.25,3.09,0,5.76-.06,7.94-.14,1.87-.06,278.35-.26,280.03-.11,2.13.17,4.74.26,7.83.26,10.61,0,19.4-1.76,26.4-5.25,7-3.52,12.53-8.76,16.62-15.79,4.08-6.98,6.92-15.71,8.56-26.15,1.62-10.44,2.44-24.19,2.44-41.29v-39.36c0-11.71.57-21.64,1.7-29.69,1.13-8.05,3.15-15.34,6.01-21.86,2.84-6.52,6.55-11.85,11.12-16.02,4.54-4.14,10.27-6.55,17.1-7.2,1.3-.17,2.44-.54,3.4-1.11.99-.57,1.76-1.42,2.33-2.55.57-1.16.99-2.61,1.25-4.42.23-1.79.34-3.97.34-6.58s-.11-4.76-.34-6.47Zm-93.98,12.25l-77.22,76.9-26.83-26.74,52.38-50.25-52.38-50.28,26.83-26.71,77.22,76.9.09.09-.09.08Zm-302.03-.08l.23-.23,77.07-76.76,26.83,26.71-52.38,50.28,52.38,50.25-26.83,26.74-77.07-76.79-.23-.2Zm189.6-77.07l-41.37,154.46h-43.44l41.37-154.46h43.44Z"/>
    <polygon class="cls-1" points="493.07 371.22 440.69 421.5 493.07 471.74 466.24 498.49 389.17 421.69 388.94 421.5 389.17 421.27 466.24 344.51 493.07 371.22"/>
    <polygon class="cls-1" points="535.09 344.42 578.54 344.42 537.16 498.88 493.72 498.88 535.09 344.42"/>
    <polygon class="cls-1" points="691.06 421.5 690.97 421.58 613.76 498.49 586.93 471.74 639.31 421.5 586.93 371.22 613.76 344.51 690.97 421.41 691.06 421.5"/>
    <g>
      <polygon class="cls-3" points="389.17 421.27 389.17 421.69 388.94 421.5 389.17 421.27"/>
      <polygon class="cls-3" points="691.06 421.5 690.97 421.58 690.97 421.41 691.06 421.5"/>
      <path class="cls-3" d="m535.09,344.42l-41.37,154.46h43.44l41.37-154.46h-43.44Z"/>
      <polygon class="cls-3" points="440.69 421.5 493.07 471.74 466.24 498.49 389.17 421.69 389.17 421.27 466.24 344.51 493.07 371.22 440.69 421.5"/>
      <polygon class="cls-3" points="440.69 421.5 493.07 471.74 466.24 498.49 389.17 421.69 389.17 421.27 466.24 344.51 493.07 371.22 440.69 421.5"/>
      <polygon class="cls-3" points="690.97 421.41 690.97 421.58 613.76 498.49 586.93 471.74 639.31 421.5 586.93 371.22 613.76 344.51 690.97 421.41"/>
      <polygon class="cls-3" points="690.97 421.41 690.97 421.58 613.76 498.49 586.93 471.74 639.31 421.5 586.93 371.22 613.76 344.51 690.97 421.41"/>
      <polygon class="cls-3" points="578.54 344.42 537.16 498.88 493.72 498.88 535.09 344.42 578.54 344.42"/>
      <polygon class="cls-3" points="578.54 344.42 537.16 498.88 493.72 498.88 535.09 344.42 578.54 344.42"/>
    </g>
  </g>
  <g>
    <path class="cls-2" d="m358.32,726.28c0,6.75-.72,12.54-2.16,17.35-1.44,4.82-3.45,8.82-6.02,12.02-2.58,3.2-5.56,5.71-8.96,7.55-3.4,1.84-7.05,3.14-10.97,3.9-3.92.76-7.95,1.14-12.11,1.14h-22.41v-83.06h20.98c5.31,0,10.46.55,15.43,1.65,4.97,1.1,9.43,3.12,13.36,6.05,3.94,2.94,7.06,7.09,9.38,12.47,2.32,5.37,3.48,12.36,3.48,20.95Zm-20.38,0c0-5.59-.47-10.15-1.41-13.66-.94-3.52-2.24-6.23-3.9-8.15-1.66-1.92-3.61-3.24-5.84-3.95-2.24-.72-4.65-1.08-7.25-1.08h-4.19v54.6h4.19c2.72,0,5.2-.43,7.46-1.29,2.26-.86,4.21-2.32,5.84-4.37,1.64-2.06,2.9-4.88,3.78-8.48.88-3.6,1.32-8.13,1.32-13.6Z"/>
    <path class="cls-2" d="m408.66,704.58v50.7h16.18v12.95h-53.16v-12.95h18.04v-37.76h-17.44v-12.95h36.38Zm-11.45-33.32c3.28,0,5.95,1.02,8.03,3.06,2.08,2.04,3.12,4.58,3.12,7.61s-1.04,5.58-3.12,7.64c-2.08,2.06-4.76,3.09-8.03,3.09s-6.02-1.03-8.12-3.09c-2.1-2.06-3.15-4.6-3.15-7.64s1.05-5.57,3.15-7.61c2.1-2.04,4.8-3.06,8.12-3.06Z"/>
    <path class="cls-2" d="m498.2,694.4l4.43,13.9c-2.24.88-4.85,1.52-7.85,1.92-3,.4-6.49.6-10.49.6,3.99,1.72,7.04,3.85,9.14,6.38,2.1,2.54,3.15,5.86,3.15,9.98s-1.1,7.78-3.3,11c-2.2,3.22-5.31,5.74-9.35,7.58-4.04,1.84-8.81,2.76-14.32,2.76-1.36,0-2.64-.06-3.84-.18-1.2-.12-2.38-.3-3.54-.54-.68.36-1.2.88-1.56,1.56-.36.68-.54,1.38-.54,2.1,0,1,.41,1.9,1.23,2.7.82.8,2.75,1.2,5.78,1.2h10.43c4.95,0,9.24.8,12.86,2.4,3.62,1.6,6.42,3.78,8.42,6.53,2,2.76,3,5.91,3,9.47,0,6.51-2.86,11.65-8.57,15.4-5.71,3.75-14.2,5.63-25.47,5.63-8.15,0-14.45-.83-18.91-2.49-4.45-1.66-7.55-4.02-9.29-7.07-1.74-3.06-2.61-6.68-2.61-10.88h16.78c0,1.84.37,3.35,1.11,4.52.74,1.18,2.16,2.05,4.25,2.61,2.1.56,5.14.84,9.14.84s7.11-.32,9.23-.96c2.12-.64,3.57-1.51,4.35-2.61.78-1.1,1.17-2.33,1.17-3.69,0-1.88-.74-3.4-2.22-4.55-1.48-1.16-3.82-1.74-7.01-1.74h-10.13c-6.87,0-11.87-1.27-14.98-3.81-3.12-2.54-4.67-5.5-4.67-8.9,0-2.36.63-4.59,1.89-6.71,1.26-2.12,3.03-3.9,5.3-5.33-4.08-2.16-6.99-4.7-8.75-7.64-1.76-2.94-2.64-6.46-2.64-10.58,0-4.79,1.22-8.92,3.66-12.38,2.44-3.46,5.8-6.12,10.1-8,4.29-1.88,9.2-2.82,14.71-2.82,4.75.08,8.89-.25,12.4-.99,3.52-.74,6.67-1.76,9.47-3.06,2.8-1.3,5.47-2.69,8.03-4.17Zm-29.43,20.5c-3,0-5.37.95-7.13,2.85-1.76,1.9-2.64,4.5-2.64,7.82,0,3.52.9,6.21,2.7,8.09,1.8,1.88,4.15,2.82,7.07,2.82,3.15,0,5.56-.94,7.22-2.82,1.66-1.88,2.49-4.65,2.49-8.33s-.82-6.18-2.46-7.88c-1.64-1.7-4.06-2.55-7.25-2.55Z"/>
    <path class="cls-2" d="m552.49,704.58v50.7h16.18v12.95h-53.16v-12.95h18.04v-37.76h-17.44v-12.95h36.38Zm-11.45-33.32c3.28,0,5.95,1.02,8.03,3.06,2.08,2.04,3.12,4.58,3.12,7.61s-1.04,5.58-3.12,7.64c-2.08,2.06-4.76,3.09-8.03,3.09s-6.02-1.03-8.12-3.09c-2.1-2.06-3.15-4.6-3.15-7.64s1.05-5.57,3.15-7.61c2.1-2.04,4.8-3.06,8.12-3.06Z"/>
    <path class="cls-2" d="m642.81,764.52c-2.48,1.6-5.47,2.96-8.99,4.08-3.52,1.12-7.47,1.68-11.87,1.68-8.31,0-14.48-2.13-18.52-6.38-4.04-4.26-6.05-10.04-6.05-17.35v-28.89h-13.37v-13.06h13.37v-13.78l18.94-2.28v16.06h20.5l-1.86,13.06h-18.64v28.89c0,3.16.72,5.41,2.16,6.77,1.44,1.36,3.74,2.04,6.89,2.04,2.24,0,4.29-.27,6.14-.81,1.86-.54,3.53-1.23,5-2.07l6.29,12.05Z"/>
    <path class="cls-2" d="m711.01,749.89c0,2.4.33,4.14.99,5.21.66,1.08,1.73,1.9,3.21,2.46l-3.9,12.47c-3.76-.36-6.92-1.19-9.5-2.49-2.58-1.3-4.6-3.27-6.08-5.9-2.44,2.92-5.55,5.09-9.35,6.5-3.8,1.42-7.67,2.13-11.63,2.13-6.55,0-11.78-1.87-15.67-5.6-3.9-3.74-5.84-8.54-5.84-14.41,0-6.91,2.71-12.25,8.12-16,5.41-3.76,13.04-5.63,22.86-5.63h8.57v-2.4c0-3.32-1.07-5.77-3.21-7.37-2.14-1.6-5.26-2.4-9.38-2.4-2.04,0-4.65.29-7.85.87-3.2.58-6.39,1.41-9.59,2.49l-4.38-12.59c4.12-1.56,8.4-2.74,12.86-3.54,4.45-.8,8.44-1.2,11.96-1.2,9.47,0,16.47,1.93,21.01,5.78,4.53,3.86,6.8,9.42,6.8,16.69v24.93Zm-29.73,6.83c2.04,0,4.17-.61,6.41-1.83,2.24-1.22,3.93-2.95,5.09-5.18v-10.31h-4.67c-5.27,0-9.15.81-11.63,2.43-2.48,1.62-3.72,3.99-3.72,7.1,0,2.44.75,4.34,2.25,5.72s3.59,2.07,6.26,2.07Z"/>
    <path class="cls-2" d="m762.55,679.29v68.92c0,2.56.73,4.39,2.19,5.48,1.46,1.1,3.47,1.65,6.02,1.65,1.64,0,3.21-.19,4.73-.57,1.52-.38,2.94-.83,4.26-1.35l4.55,12.65c-2.16,1.12-4.76,2.1-7.79,2.94-3.04.84-6.57,1.26-10.61,1.26-7.67,0-13.3-2.21-16.9-6.62-3.6-4.41-5.39-10.34-5.39-17.77v-53.64h-18.76v-12.94h37.7Z"/>
    <path class="cls-2" d="m333.25,810.52v10.01h-11.93v37.74h11.93v10.05h-37.53v-10.05h11.93v-37.74h-11.93v-10.01h37.53Z"/>
    <path class="cls-2" d="m345.34,868.32v-44.29h11.51l.92,5.13c1.97-2.22,4.06-3.88,6.26-4.96,2.2-1.08,4.7-1.63,7.51-1.63,3.78,0,6.76,1.15,8.92,3.46,2.17,2.31,3.25,5.56,3.25,9.76v32.53h-13.18v-28.73c0-1.81-.13-3.25-.38-4.32-.25-1.07-.69-1.84-1.31-2.29-.62-.46-1.48-.69-2.57-.69-.92,0-1.81.2-2.69.61-.88.4-1.73.98-2.57,1.73-.83.75-1.67,1.65-2.5,2.71v30.99h-13.18Z"/>
    <path class="cls-2" d="m395.39,868.32v-44.29h11.51l.92,5.13c1.97-2.22,4.06-3.88,6.26-4.96,2.2-1.08,4.7-1.63,7.51-1.63,3.78,0,6.76,1.15,8.92,3.46,2.17,2.31,3.25,5.56,3.25,9.76v32.53h-13.18v-28.73c0-1.81-.13-3.25-.38-4.32-.25-1.07-.69-1.84-1.31-2.29-.62-.46-1.48-.69-2.57-.69-.92,0-1.81.2-2.69.61-.88.4-1.73.98-2.57,1.73-.83.75-1.67,1.65-2.5,2.71v30.99h-13.18Z"/>
    <path class="cls-2" d="m464.61,822.57c4.56,0,8.44.97,11.63,2.92,3.2,1.95,5.64,4.68,7.34,8.19,1.69,3.52,2.54,7.64,2.54,12.36s-.85,9.15-2.57,12.7c-1.71,3.55-4.16,6.26-7.36,8.15-3.2,1.89-7.06,2.83-11.59,2.83s-8.36-.93-11.57-2.79c-3.21-1.86-5.67-4.56-7.38-8.09-1.71-3.53-2.57-7.77-2.57-12.72s.85-8.81,2.57-12.34c1.71-3.53,4.17-6.28,7.38-8.26,3.21-1.97,7.07-2.96,11.57-2.96Zm0,9.72c-2.7,0-4.69,1.11-5.98,3.32-1.29,2.21-1.94,5.72-1.94,10.53s.65,8.44,1.94,10.63c1.29,2.2,3.29,3.3,5.98,3.3s4.69-1.1,5.98-3.3c1.29-2.2,1.94-5.77,1.94-10.72s-.65-8.27-1.94-10.47c-1.29-2.2-3.29-3.3-5.98-3.3Z"/>
    <path class="cls-2" d="m537.26,824.03l-14.76,44.29h-15.51l-14.93-44.29h14.22l8.63,34.2,9.01-34.2h13.35Z"/>
    <path class="cls-2" d="m582.8,855.56c0,1.67.23,2.88.69,3.63.46.75,1.2,1.32,2.23,1.71l-2.71,8.67c-2.61-.25-4.82-.83-6.61-1.73-1.79-.9-3.2-2.27-4.23-4.11-1.69,2.03-3.86,3.54-6.5,4.52-2.64.99-5.34,1.48-8.09,1.48-4.56,0-8.2-1.3-10.91-3.9-2.71-2.6-4.07-5.94-4.07-10.03,0-4.81,1.88-8.52,5.65-11.13,3.77-2.61,9.07-3.92,15.91-3.92h5.96v-1.67c0-2.31-.74-4.02-2.23-5.13-1.49-1.11-3.66-1.67-6.53-1.67-1.42,0-3.24.2-5.46.61-2.22.4-4.45.98-6.67,1.73l-3.04-8.76c2.86-1.08,5.84-1.9,8.95-2.46,3.1-.56,5.87-.83,8.32-.83,6.59,0,11.46,1.34,14.62,4.02,3.15,2.68,4.73,6.55,4.73,11.61v17.35Zm-20.68,4.75c1.42,0,2.9-.42,4.46-1.27,1.56-.85,2.74-2.05,3.54-3.61v-7.17h-3.25c-3.67,0-6.37.56-8.09,1.69-1.72,1.13-2.59,2.77-2.59,4.94,0,1.7.52,3.02,1.56,3.98,1.04.96,2.5,1.44,4.36,1.44Z"/>
    <path class="cls-2" d="m635.42,865.73c-1.72,1.11-3.81,2.06-6.26,2.83-2.45.78-5.2,1.17-8.26,1.17-5.78,0-10.08-1.48-12.89-4.44-2.81-2.96-4.21-6.99-4.21-12.07v-20.1h-9.3v-9.09h9.3v-9.59l13.18-1.58v11.18h14.26l-1.29,9.09h-12.97v20.1c0,2.2.5,3.77,1.5,4.71,1,.95,2.6,1.42,4.8,1.42,1.56,0,2.98-.19,4.27-.56s2.45-.86,3.48-1.44l4.38,8.38Z"/>
    <path class="cls-2" d="m672.66,824.03v35.28h11.26v9.01h-36.99v-9.01h12.55v-26.27h-12.14v-9.01h25.31Zm-7.96-23.19c2.28,0,4.14.71,5.59,2.13,1.45,1.42,2.17,3.18,2.17,5.3s-.72,3.89-2.17,5.32c-1.45,1.43-3.31,2.15-5.59,2.15s-4.19-.72-5.65-2.15c-1.46-1.43-2.19-3.2-2.19-5.32s.73-3.88,2.19-5.3c1.46-1.42,3.34-2.13,5.65-2.13Z"/>
    <path class="cls-2" d="m714.83,822.57c4.56,0,8.44.97,11.63,2.92,3.2,1.95,5.64,4.68,7.34,8.19,1.69,3.52,2.54,7.64,2.54,12.36s-.85,9.15-2.57,12.7c-1.71,3.55-4.16,6.26-7.36,8.15-3.2,1.89-7.06,2.83-11.59,2.83s-8.36-.93-11.57-2.79c-3.21-1.86-5.67-4.56-7.38-8.09-1.71-3.53-2.57-7.77-2.57-12.72s.85-8.81,2.57-12.34c1.71-3.53,4.17-6.28,7.38-8.26,3.21-1.97,7.07-2.96,11.57-2.96Zm0,9.72c-2.7,0-4.69,1.11-5.98,3.32-1.29,2.21-1.94,5.72-1.94,10.53s.65,8.44,1.94,10.63c1.29,2.2,3.29,3.3,5.98,3.3s4.69-1.1,5.98-3.3c1.29-2.2,1.94-5.77,1.94-10.72s-.65-8.27-1.94-10.47c-1.29-2.2-3.29-3.3-5.98-3.3Z"/>
    <path class="cls-2" d="m745.69,868.32v-44.29h11.51l.92,5.13c1.97-2.22,4.06-3.88,6.26-4.96,2.2-1.08,4.7-1.63,7.51-1.63,3.78,0,6.76,1.15,8.92,3.46,2.17,2.31,3.25,5.56,3.25,9.76v32.53h-13.18v-28.73c0-1.81-.13-3.25-.38-4.32-.25-1.07-.69-1.84-1.31-2.29-.62-.46-1.48-.69-2.57-.69-.92,0-1.81.2-2.69.61-.88.4-1.73.98-2.57,1.73-.83.75-1.67,1.65-2.5,2.71v30.99h-13.18Z"/>
  </g>
</svg>