<?xml version="1.0" encoding="UTF-8"?>
<svg id="Calque_1" data-name="Calque 1" xmlns="http://www.w3.org/2000/svg" viewBox="0 0 1920 1080">
  <defs>
    <style>
      .cls-1 {
        fill: #cee5f2;
      }

      .cls-2 {
        fill: #06ffa2;
      }
    </style>
  </defs>
  <g>
    <path class="cls-1" d="m793.07,527.57c-.25-1.73-.7-3.2-1.36-4.44-.66-1.23-1.48-2.17-2.46-2.83-.98-.65-2.13-.98-3.45-.98-6.4-.82-11.87-2.26-16.38-4.31-4.51-2.05-8.21-4.96-11.08-8.74-2.87-3.78-5.01-8.5-6.4-14.16-1.4-5.67-2.09-14.07-2.09-25.25v-50.73c0-17.39-.78-31.35-2.35-41.86-1.56-10.5-4.39-19.25-8.49-26.23-4.1-6.97-9.69-12.23-16.74-15.76-7.06-3.52-16.01-5.29-26.84-5.29-3.13,0-5.75.04-7.89.13-1.74.07-280.71.07-282.39,0-2.06-.09-4.64-.13-7.76-.13-10.84,0-19.74,1.77-26.72,5.29-6.98,3.53-12.56,8.84-16.74,15.89-4.19,7.06-7.06,15.85-8.62,26.34-1.57,10.51-2.34,24.38-2.34,41.61v39.65c0,20.35-3,35.75-9,46.17-6,10.42-15.06,16.29-27.21,17.61-1.47.33-2.71.74-3.69,1.23-.98.49-1.76,1.36-2.34,2.58-.58,1.24-.98,2.75-1.24,4.56-.25,1.81-.36,4.02-.36,6.65,0,2.46.16,4.64.49,6.53.33,1.89.78,3.4,1.36,4.56.58,1.15,1.36,2.01,2.34,2.58.99.58,2.22,1.04,3.69,1.36,6.4.66,11.87,2.58,16.38,5.78,4.51,3.2,8.21,7.39,11.08,12.56,2.87,5.17,5.02,11.2,6.4,18.11,1.4,6.89,2.1,15.92,2.1,27.08v50.73c0,17.4.74,31.35,2.21,41.86,1.48,10.51,4.27,19.25,8.38,26.23,4.1,6.98,9.69,12.23,16.74,15.76,7.06,3.53,16.09,5.29,27.09,5.29,3.12,0,5.78-.04,8-.13,1.87-.06,280.46-.26,282.14-.12,2.13.16,4.76.25,7.89.25,10.67,0,19.53-1.76,26.59-5.29,7.05-3.53,12.63-8.82,16.74-15.89,4.11-7.05,6.98-15.83,8.62-26.34,1.64-10.51,2.46-24.38,2.46-41.61v-39.64c0-11.82.57-21.8,1.72-29.92,1.15-8.13,3.16-15.47,6.04-22.04,2.87-6.56,6.6-11.94,11.2-16.12,4.59-4.19,10.34-6.6,17.23-7.27,1.31-.16,2.46-.53,3.45-1.11.98-.58,1.76-1.43,2.34-2.58.58-1.15.99-2.62,1.24-4.44.25-1.8.36-4.01.36-6.65s-.12-4.8-.36-6.52Zm-81.46-181.16c.84.01,1.6.01,2.27.01.46,0,.94-.01,1.46-.01h0s-3.73.01-3.73.01h0Zm23.35,199.5c-5.67,5.91-10.15,12.98-13.42,21.18-3.29,8.21-5.62,17.07-7.02,26.59-1.4,9.52-2.09,20.36-2.09,32.5v35.95c0,14.62-.42,25.45-1.23,32.51-.83,7.05-2.14,12.56-3.95,16.5-1.8,3.94-4.1,6.65-6.89,8.12-2.8,1.48-6.16,2.22-10.09,2.22l-160.94.22-127.73-.22c-3.78,0-7.02-.74-9.73-2.22-2.7-1.47-4.92-4.23-6.65-8.25-1.72-4.02-3-9.56-3.81-16.61-.83-7.06-1.24-17.82-1.24-32.27v-46.78c0-12.15-.65-22.41-1.96-30.78-1.32-8.37-3.66-15.96-7.02-22.78-3.37-6.81-7.84-12.63-13.42-17.48-5.58-4.84-12.64-8.09-21.17-9.73,8.53-1.8,15.59-5.12,21.17-9.97,5.58-4.84,10.05-10.63,13.42-17.36,3.36-6.73,5.7-14.32,7.02-22.78,1.31-8.45,1.96-18.67,1.96-30.66v-35.95c0-14.61.45-25.45,1.36-32.5.91-7.06,2.22-12.6,3.94-16.62,1.73-4.02,3.98-6.73,6.78-8.13,2.78-1.39,6.16-2.09,10.09-2.09l127.9-.22,160.77.22c3.78,0,7.02.74,9.73,2.22,2.71,1.47,4.92,4.23,6.65,8.25,1.72,4.02,2.99,9.52,3.82,16.5.81,6.98,1.23,17.78,1.23,32.38v46.78c0,12.15.69,21.84,2.09,29.07,1.4,7.22,3.73,13.58,7.02,19.08,3.28,5.51,7.76,10.06,13.42,13.67,5.66,3.62,12.68,6.24,21.05,7.87-8.38,1.81-15.4,5.67-21.05,11.58Z"/>
    <g>
      <polygon class="cls-2" points="394.09 539.83 394.31 540.05 394.31 539.62 394.09 539.83"/>
      <polygon class="cls-2" points="698.49 539.83 698.41 539.76 698.41 539.91 698.49 539.83"/>
      <path class="cls-2" d="m543.44,617.81h-43.77l41.67-155.61h43.77l-41.67,155.61Z"/>
      <polygon class="cls-2" points="499.01 590.47 446.23 539.83 499.01 489.19 471.97 462.27 394.31 539.62 394.31 540.05 471.97 617.4 499.01 590.47"/>
      <polygon class="cls-2" points="499.01 590.47 446.23 539.83 499.01 489.19 471.97 462.27 394.31 539.62 394.31 540.05 471.97 617.4 499.01 590.47"/>
      <polygon class="cls-2" points="593.58 489.19 646.36 539.83 593.58 590.47 620.61 617.4 698.41 539.91 698.41 539.76 620.61 462.27 593.58 489.19"/>
      <polygon class="cls-2" points="593.58 489.19 646.36 539.83 593.58 590.47 620.61 617.4 698.41 539.91 698.41 539.76 620.61 462.27 593.58 489.19"/>
      <polygon class="cls-2" points="499.67 617.81 543.44 617.81 585.1 462.19 541.34 462.19 499.67 617.81"/>
      <polygon class="cls-2" points="499.67 617.81 543.44 617.81 585.1 462.19 541.34 462.19 499.67 617.81"/>
    </g>
  </g>
  <g>
    <path class="cls-1" d="m951.61,453.5c0,13.21-1.41,24.52-4.22,33.94-2.81,9.42-6.74,17.25-11.78,23.5-5.04,6.25-10.88,11.18-17.52,14.77-6.64,3.59-13.8,6.14-21.45,7.62-7.66,1.49-15.55,2.23-23.68,2.23h-43.84v-162.48h41.03c10.39,0,20.46,1.08,30.18,3.22,9.73,2.15,18.44,6.1,26.14,11.84,7.7,5.74,13.81,13.87,18.35,24.38,4.53,10.51,6.8,24.17,6.8,40.97Zm-39.86,0c0-10.94-.92-19.85-2.76-26.73-1.84-6.88-4.38-12.19-7.62-15.94-3.24-3.75-7.05-6.33-11.43-7.74-4.38-1.41-9.11-2.11-14.19-2.11h-8.2v106.79h8.2c5.31,0,10.18-.84,14.6-2.52,4.41-1.68,8.23-4.53,11.43-8.56,3.2-4.02,5.66-9.55,7.38-16.59,1.72-7.03,2.58-15.9,2.58-26.61Z"/>
    <path class="cls-1" d="m1050.07,411.07v99.17h31.65v25.32h-103.98v-25.32h35.29v-73.85h-34.11v-25.32h71.16Zm-22.39-65.18c6.41,0,11.65,1.99,15.71,5.98,4.06,3.99,6.1,8.95,6.1,14.89s-2.03,10.92-6.1,14.95c-4.06,4.03-9.3,6.04-15.71,6.04s-11.78-2.01-15.88-6.04c-4.1-4.03-6.15-9.01-6.15-14.95s2.05-10.9,6.15-14.89c4.1-3.99,9.4-5.98,15.88-5.98Z"/>
    <path class="cls-1" d="m1225.21,391.14l8.67,27.2c-4.38,1.72-9.49,2.97-15.36,3.75-5.86.78-12.7,1.17-20.51,1.17,7.81,3.36,13.77,7.52,17.88,12.48,4.1,4.96,6.16,11.47,6.16,19.52s-2.15,15.22-6.45,21.51c-4.3,6.29-10.39,11.24-18.29,14.83-7.89,3.6-17.23,5.39-28.02,5.39-2.66,0-5.16-.12-7.5-.35-2.35-.23-4.65-.59-6.92-1.05-1.33.7-2.34,1.72-3.05,3.05-.7,1.33-1.05,2.7-1.05,4.1,0,1.96.8,3.71,2.4,5.28,1.6,1.56,5.37,2.34,11.31,2.34h20.4c9.69,0,18.07,1.56,25.15,4.69,7.07,3.13,12.56,7.38,16.47,12.78,3.91,5.39,5.86,11.57,5.86,18.52,0,12.74-5.59,22.78-16.76,30.13-11.18,7.34-27.78,11.02-49.82,11.02-15.94,0-28.27-1.62-36.98-4.86-8.71-3.24-14.77-7.85-18.17-13.83-3.4-5.98-5.1-13.07-5.1-21.28h32.82c0,3.59.72,6.54,2.17,8.85,1.45,2.3,4.22,4,8.32,5.1,4.1,1.09,10.06,1.64,17.88,1.64s13.91-.63,18.05-1.88c4.14-1.25,6.98-2.95,8.5-5.1,1.52-2.15,2.29-4.55,2.29-7.21,0-3.67-1.45-6.64-4.34-8.91-2.89-2.27-7.46-3.4-13.72-3.4h-19.81c-13.44,0-23.21-2.48-29.31-7.44-6.1-4.96-9.14-10.76-9.14-17.41,0-4.61,1.23-8.99,3.69-13.13,2.46-4.14,5.92-7.62,10.37-10.43-7.97-4.22-13.68-9.2-17.11-14.95-3.44-5.74-5.16-12.64-5.16-20.69,0-9.38,2.38-17.45,7.15-24.21,4.77-6.76,11.35-11.98,19.75-15.65,8.4-3.67,17.99-5.51,28.78-5.51,9.3.16,17.39-.49,24.26-1.93,6.88-1.44,13.05-3.44,18.52-5.98,5.47-2.54,10.71-5.26,15.71-8.15Zm-57.56,40.09c-5.86,0-10.51,1.86-13.95,5.57-3.44,3.71-5.16,8.81-5.16,15.3,0,6.88,1.76,12.15,5.28,15.83,3.52,3.67,8.13,5.51,13.83,5.51,6.17,0,10.88-1.84,14.13-5.51,3.24-3.67,4.87-9.1,4.87-16.3s-1.6-12.09-4.81-15.41c-3.21-3.32-7.93-4.98-14.19-4.98Z"/>
    <path class="cls-1" d="m1331.42,411.07v99.17h31.65v25.32h-103.98v-25.32h35.29v-73.85h-34.11v-25.32h71.16Zm-22.39-65.18c6.41,0,11.65,1.99,15.71,5.98,4.06,3.99,6.1,8.95,6.1,14.89s-2.03,10.92-6.1,14.95c-4.06,4.03-9.3,6.04-15.71,6.04s-11.78-2.01-15.88-6.04c-4.1-4.03-6.15-9.01-6.15-14.95s2.05-10.9,6.15-14.89c4.1-3.99,9.4-5.98,15.88-5.98Z"/>
    <path class="cls-1" d="m1508.08,528.3c-4.85,3.13-10.71,5.78-17.58,7.97-6.88,2.19-14.62,3.28-23.21,3.28-16.26,0-28.33-4.16-36.22-12.48-7.89-8.32-11.84-19.64-11.84-33.94v-56.5h-26.14v-25.56h26.14v-26.96l37.04-4.45v31.42h40.09l-3.63,25.56h-36.46v56.5c0,6.18,1.41,10.59,4.22,13.25,2.81,2.66,7.31,3.99,13.48,3.99,4.38,0,8.38-.53,12.02-1.58,3.63-1.06,6.9-2.4,9.79-4.04l12.31,23.56Z"/>
    <path class="cls-1" d="m1641.48,499.69c0,4.69.64,8.09,1.93,10.2,1.29,2.11,3.38,3.71,6.27,4.81l-7.62,24.38c-7.35-.7-13.54-2.33-18.58-4.86-5.04-2.54-9.01-6.39-11.9-11.55-4.77,5.71-10.86,9.95-18.29,12.72-7.43,2.77-15,4.16-22.74,4.16-12.82,0-23.03-3.65-30.65-10.96-7.62-7.31-11.43-16.7-11.43-28.19,0-13.52,5.29-23.95,15.88-31.3,10.59-7.35,25.5-11.02,44.72-11.02h16.76v-4.69c0-6.49-2.09-11.29-6.27-14.42-4.18-3.13-10.3-4.69-18.34-4.69-3.99,0-9.11.57-15.36,1.7-6.25,1.13-12.51,2.76-18.76,4.87l-8.56-24.62c8.05-3.05,16.43-5.35,25.15-6.92,8.71-1.56,16.51-2.35,23.39-2.35,18.52,0,32.22,3.77,41.09,11.31,8.87,7.54,13.31,18.43,13.31,32.65v48.77Zm-58.15,13.36c3.99,0,8.17-1.19,12.54-3.58,4.38-2.38,7.7-5.76,9.96-10.14v-20.16h-9.14c-10.32,0-17.9,1.58-22.74,4.75-4.85,3.17-7.27,7.8-7.27,13.89,0,4.77,1.46,8.5,4.4,11.19,2.93,2.7,7.01,4.04,12.25,4.04Z"/>
    <path class="cls-1" d="m1742.29,361.6v134.81c0,5,1.43,8.58,4.28,10.73,2.85,2.15,6.78,3.22,11.78,3.22,3.2,0,6.29-.37,9.26-1.11,2.97-.74,5.75-1.62,8.32-2.64l8.91,24.74c-4.22,2.19-9.3,4.1-15.24,5.74-5.94,1.64-12.86,2.46-20.75,2.46-15,0-26.02-4.32-33.06-12.95-7.03-8.63-10.55-20.22-10.55-34.76v-104.92h-36.69v-25.32h73.73Z"/>
    <path class="cls-1" d="m902.57,618.28v19.58h-23.33v73.82h23.33v19.66h-73.42v-19.66h23.33v-73.82h-23.33v-19.58h73.42Z"/>
    <path class="cls-1" d="m926.22,731.34v-86.63h22.51l1.8,10.03c3.86-4.35,7.94-7.59,12.24-9.71,4.29-2.12,9.19-3.18,14.68-3.18,7.4,0,13.21,2.26,17.46,6.77,4.24,4.52,6.36,10.88,6.36,19.09v63.63h-25.78v-56.2c0-3.53-.25-6.35-.73-8.44-.49-2.09-1.35-3.59-2.57-4.49-1.22-.9-2.89-1.35-5.02-1.35-1.79,0-3.55.4-5.26,1.19s-3.39,1.92-5.02,3.38c-1.63,1.47-3.26,3.24-4.89,5.3v60.61h-25.78Z"/>
    <path class="cls-1" d="m1024.11,731.34v-86.63h22.51l1.8,10.03c3.86-4.35,7.94-7.59,12.24-9.71,4.29-2.12,9.19-3.18,14.68-3.18,7.4,0,13.21,2.26,17.46,6.77,4.24,4.52,6.36,10.88,6.36,19.09v63.63h-25.78v-56.2c0-3.53-.25-6.35-.73-8.44-.49-2.09-1.35-3.59-2.57-4.49-1.22-.9-2.89-1.35-5.02-1.35-1.79,0-3.55.4-5.26,1.19-1.71.79-3.39,1.92-5.02,3.38-1.63,1.47-3.26,3.24-4.89,5.3v60.61h-25.78Z"/>
    <path class="cls-1" d="m1159.51,641.85c8.92,0,16.5,1.9,22.76,5.71,6.25,3.81,11.04,9.15,14.36,16.03,3.32,6.88,4.98,14.94,4.98,24.19s-1.67,17.91-5.02,24.84c-3.34,6.94-8.14,12.25-14.4,15.95-6.25,3.7-13.81,5.54-22.68,5.54s-16.35-1.82-22.64-5.46c-6.28-3.64-11.09-8.92-14.44-15.82-3.35-6.91-5.02-15.2-5.02-24.88s1.67-17.24,5.02-24.15c3.34-6.9,8.16-12.29,14.44-16.15,6.28-3.86,13.82-5.79,22.64-5.79Zm0,19c-5.28,0-9.18,2.16-11.71,6.49-2.53,4.32-3.79,11.19-3.79,20.6s1.26,16.51,3.79,20.8c2.53,4.3,6.43,6.45,11.71,6.45s9.18-2.15,11.71-6.45c2.53-4.29,3.79-11.28,3.79-20.96s-1.26-16.18-3.79-20.47c-2.53-4.29-6.43-6.45-11.71-6.45Z"/>
    <path class="cls-1" d="m1301.61,644.71l-28.88,86.63h-30.35l-29.2-86.63h27.82l16.89,66.89,17.62-66.89h26.1Z"/>
    <path class="cls-1" d="m1390.69,706.38c0,3.26.45,5.63,1.34,7.1.9,1.47,2.35,2.58,4.36,3.34l-5.3,16.97c-5.11-.49-9.42-1.62-12.93-3.38-3.51-1.77-6.27-4.45-8.28-8.03-3.32,3.97-7.56,6.92-12.72,8.85-5.17,1.93-10.44,2.89-15.82,2.89-8.92,0-16.03-2.54-21.33-7.63-5.3-5.09-7.95-11.62-7.95-19.62,0-9.41,3.68-16.67,11.06-21.78,7.37-5.11,17.74-7.67,31.12-7.67h11.66v-3.26c0-4.51-1.45-7.86-4.36-10.03-2.91-2.17-7.17-3.26-12.77-3.26-2.77,0-6.34.4-10.68,1.19-4.35.79-8.7,1.92-13.05,3.38l-5.95-17.13c5.6-2.12,11.43-3.73,17.5-4.81,6.06-1.09,11.49-1.63,16.27-1.63,12.89,0,22.42,2.62,28.59,7.87,6.17,5.25,9.26,12.82,9.26,22.72v33.93Zm-40.46,9.3c2.77,0,5.68-.83,8.73-2.49,3.05-1.66,5.36-4.01,6.93-7.06v-14.03h-6.36c-7.18,0-12.45,1.1-15.82,3.3-3.37,2.2-5.06,5.42-5.06,9.67,0,3.32,1.02,5.92,3.06,7.79,2.04,1.88,4.88,2.81,8.53,2.81Z"/>
    <path class="cls-1" d="m1493.63,726.28c-3.37,2.17-7.45,4.03-12.24,5.54-4.78,1.52-10.17,2.28-16.15,2.28-11.31,0-19.71-2.89-25.21-8.69-5.49-5.79-8.24-13.66-8.24-23.61v-39.32h-18.19v-17.78h18.19v-18.76l25.78-3.1v21.86h27.9l-2.53,17.78h-25.37v39.32c0,4.3.98,7.37,2.94,9.22,1.96,1.85,5.09,2.77,9.38,2.77,3.04,0,5.83-.37,8.36-1.1s4.8-1.67,6.81-2.81l8.56,16.4Z"/>
    <path class="cls-1" d="m1566.47,644.71v69.01h22.02v17.62h-72.35v-17.62h24.55v-51.39h-23.74v-17.62h49.52Zm-15.58-45.35c4.46,0,8.1,1.39,10.93,4.16,2.83,2.77,4.24,6.23,4.24,10.36s-1.41,7.6-4.24,10.4c-2.83,2.8-6.47,4.2-10.93,4.2s-8.2-1.4-11.06-4.2c-2.85-2.8-4.28-6.27-4.28-10.4s1.43-7.59,4.28-10.36c2.86-2.77,6.54-4.16,11.06-4.16Z"/>
    <path class="cls-1" d="m1648.94,641.85c8.92,0,16.5,1.9,22.76,5.71,6.25,3.81,11.04,9.15,14.36,16.03,3.32,6.88,4.98,14.94,4.98,24.19s-1.67,17.91-5.02,24.84c-3.34,6.94-8.14,12.25-14.4,15.95-6.25,3.7-13.81,5.54-22.68,5.54s-16.35-1.82-22.64-5.46c-6.28-3.64-11.09-8.92-14.44-15.82-3.35-6.91-5.02-15.2-5.02-24.88s1.67-17.24,5.02-24.15c3.34-6.9,8.16-12.29,14.44-16.15,6.28-3.86,13.82-5.79,22.64-5.79Zm0,19c-5.28,0-9.18,2.16-11.71,6.49-2.53,4.32-3.79,11.19-3.79,20.6s1.26,16.51,3.79,20.8c2.53,4.3,6.43,6.45,11.71,6.45s9.18-2.15,11.71-6.45c2.53-4.29,3.79-11.28,3.79-20.96s-1.26-16.18-3.79-20.47c-2.53-4.29-6.43-6.45-11.71-6.45Z"/>
    <path class="cls-1" d="m1709.3,731.34v-86.63h22.51l1.8,10.03c3.86-4.35,7.94-7.59,12.24-9.71,4.29-2.12,9.19-3.18,14.68-3.18,7.4,0,13.21,2.26,17.46,6.77,4.24,4.52,6.36,10.88,6.36,19.09v63.63h-25.78v-56.2c0-3.53-.25-6.35-.73-8.44-.49-2.09-1.35-3.59-2.57-4.49-1.22-.9-2.89-1.35-5.02-1.35-1.79,0-3.55.4-5.26,1.19-1.71.79-3.39,1.92-5.02,3.38-1.63,1.47-3.26,3.24-4.89,5.3v60.61h-25.78Z"/>
  </g>
</svg>